<?xml version="1.0" encoding="UTF-8" standalone="no"?>
<!-- Created with Inkscape (http://www.inkscape.org/) -->

<svg
   width="106.72265mm"
   height="81.493729mm"
   viewBox="0 0 106.72265 81.493729"
   version="1.1"
   id="svg1"
   xml:space="preserve"
   xmlns="http://www.w3.org/2000/svg"
   xmlns:svg="http://www.w3.org/2000/svg"><defs
     id="defs1" /><g
     id="layer2"
     transform="translate(-11.014994,-12.119955)"><path
       style="display:inline;fill:#1e1eff;fill-opacity:1;stroke:none;stroke-width:1.365;stroke-linecap:round;stroke-linejoin:round;stroke-dasharray:none;stroke-opacity:1"
       d="m 54.74392,15.225413 c 4.76149,1.276977 9.75306,3.136811 16.4856,5.735467 14.8755,5.741717 37.91,2.662726 45.82567,0.01952 -0.85912,3.384094 -11.17491,22.7093 -28.69221,35.331744 1.4088,2.33189 17.15782,27.24327 24.30497,34.28589 -1.51291,0.74151 -7.10624,3.31761 -20.2272,1.93843 -12.13709,-1.27576 -25.52064,-7.85835 -37.69683,-10.01527 z"
       id="path4" /><path
       style="display:inline;fill:none;stroke:#000000;stroke-width:1.365;stroke-linecap:round;stroke-linejoin:round;stroke-dasharray:none;stroke-opacity:1"
       d="M 11.697494,90.137214 V 22.907053 c 0,0 9.569365,-10.417231 23.97198,-10.09737 14.402616,0.319862 20.684546,2.40948 35.560046,8.151197 14.8755,5.741718 37.91,2.662726 45.82567,0.01952 -0.85912,3.384094 -11.17491,22.7093 -28.69221,35.331744 1.4088,2.33189 17.15782,27.24327 24.30497,34.28589 -1.51291,0.74151 -7.10624,3.31761 -20.2272,1.93843 -13.12096,-1.37918 -27.54679,-8.94368 -40.50559,-10.43334 -12.958805,-1.48966 -23.462885,-2.93823 -40.237666,8.03409 z"
       id="path2" /></g></svg>
